:FULLY-SPECIFIED
:FORCE-ALL-JOINTS-BE-3DOF
:DEGREES
714
root -11.6096 13.9336 -38.3047 151.863 -61.1656 -147.39
lfemur -64.3126 24.8312 -0.502756
ltibia 75.0554 -0 0
lfoot -8.13245 -7.74622 -5.5057e-05
ltoes -3.5833 0 0
rfemur 8.7059 -10.1202 11.846
rtibia 41.6034 -0 0
rfoot -25.1237 -27.507 -0.000563975
rtoes -25.4537 0 0
lowerback 12.283 1.43009 8.87931
upperback -1.71672 3.48092 5.72661
thorax -8.62349 1.28378 0.504825
lowerneck -4.66773 4.81892 0.533761
upperneck 4.09759 6.32241 1.37802
head 2.05146 3.19399 0.544527
lclavicle 3.05134e-14 -2.96189e-14 0
lhumerus 62.4794 15.9035 107.494
lradius 11.8411 -0 0
lwrist -77.7591 0 0
lhand -33.492 36.2525 -0.0042669
lfingers 7.12502 -0 0
lthumb -6.68916 66.1261 -0.00403407
rclavicle 3.05134e-14 -2.96189e-14 0
rhumerus -75.4352 19.0809 -95.5501
rradius 114.957 -0 0
rwrist -66.4875 0 0
rhand -9.20893 -40.924 0.324841
rfingers 7.12502 -0 0
rthumb 16.7364 -70.1154 0.342416
715
root -11.6195 13.93 -38.3082 151.882 -61.2118 -147.331
lfemur -64.4578 24.8626 -0.56209
ltibia 75.1897 -0 0
lfoot -8.20671 -7.74575 -5.75573e-05
ltoes -3.62903 0 0
rfemur 8.76835 -10.1469 11.837
rtibia 41.4851 -0 0
rfoot -25.0995 -27.5218 -0.000589586
rtoes -25.7568 0 0
lowerback 12.248 1.4265 8.88477
upperback -1.71913 3.47251 5.73103
thorax -8.60635 1.28007 0.508997
lowerneck -4.61449 4.82813 0.58111
upperneck 4.0703 6.33498 1.32537
head 2.03634 3.19945 0.518538
lclavicle 3.05134e-14 -2.96189e-14 0
lhumerus 62.4946 15.8535 107.383
lradius 11.8489 -0 0
lwrist -77.7591 0 0
lhand -33.4486 36.1901 -0.00446067
lfingers 7.12502 -0 0
lthumb -6.64727 66.065 -0.00421727
rclavicle 3.05134e-14 -2.96189e-14 0
rhumerus -75.4397 19.0765 -95.5762
rradius 114.84 -0 0
rwrist -66.2055 0 0
rhand -8.75014 -40.4745 0.339622
rfingers 7.12502 -0 0
rthumb 17.1778 -69.6228 0.357999
716
root -11.6293 13.9264 -38.3117 151.901 -61.2588 -147.271
lfemur -64.6056 24.8944 -0.622557
ltibia 75.3264 -0 0
lfoot -8.28225 -7.74528 -5.94758e-05
ltoes -3.67554 0 0
rfemur 8.8319 -10.174 11.8277
rtibia 41.3648 -0 0
rfoot -25.075 -27.5368 -0.000609237
rtoes -26.0652 0 0
lowerback 12.2124 1.42286 8.89032
upperback -1.72159 3.46395 5.73553
thorax -8.5889 1.2763 0.513239
lowerneck -4.56032 4.83745 0.629289
upperneck 4.04253 6.34774 1.2718
head 2.02095 3.20501 0.492097
lclavicle 3.05134e-14 -2.96189e-14 0
lhumerus 62.5101 15.8028 107.271
lradius 11.8569 -0 0
lwrist -77.7591 0 0
lhand -33.4044 36.1267 -0.00460935
lfingers 7.12502 -0 0
lthumb -6.60465 66.0029 -0.00435783
rclavicle 3.05134e-14 -2.96189e-14 0
rhumerus -75.4442 19.0719 -95.6027
rradius 114.721 -0 0
rwrist -65.9186 0 0
rhand -8.2833 -40.0171 0.350965
rfingers 7.12502 -0 0
rthumb 17.6268 -69.1216 0.369957
717
root -11.6392 13.9228 -38.3152 151.92 -61.3063 -147.21
lfemur -64.7553 24.9264 -0.683866
ltibia 75.4647 -0 0
lfoot -8.35871 -7.74479 -6.07755e-05
ltoes -3.72262 0 0
rfemur 8.89623 -10.2014 11.8183
rtibia 41.243 -0 0
rfoot -25.0501 -27.5521 -0.00062255
rtoes -26.3774 0 0
lowerback 12.1764 1.41918 8.89594
upperback -1.72407 3.45528 5.74009
thorax -8.57125 1.27248 0.517532
lowerneck -4.50549 4.84684 0.678063
upperneck 4.0144 6.36064 1.21757
head 2.00538 3.21062 0.465333
lclavicle 3.05134e-14 -2.96189e-14 0
lhumerus 62.526 15.7515 107.157
lradius 11.8649 -0 0
lwrist -77.7591 0 0
lhand -33.3598 36.0625 -0.00471008
lfingers 7.12502 -0 0
lthumb -6.56152 65.94 -0.00445306
rclavicle 3.05134e-14 -2.96189e-14 0
rhumerus -75.4488 19.0672 -95.6295
rradius 114.601 -0 0
rwrist -65.6283 0 0
rhand -7.8107 -39.5541 0.35865
rfingers 7.12502 -0 0
rthumb 18.0815 -68.6142 0.378059
